<?xml version="1.0" encoding="UTF-8"?>
<svg id="Layer_2" data-name="Layer 2" xmlns="http://www.w3.org/2000/svg" viewBox="0 0 152.35 134.62">
  <defs>
    <style>
      .cls-1 {
        fill: #861f29;
      }
    </style>
  </defs>
  <g id="Layer_1-2" data-name="Layer 1">
    <path class="cls-1" d="M73.79,106.55c-1.34-1.54-6.49,6.91-7.48,8.01-13.28,14.7-32.3,26.48-52.19,16.17-22.34-11.58-17.33-51.17,9.11-53.06,3.04,6.47,3.81,10.96,11.28,13.67,14.67,5.31,29.54-5.75,36.71-17.87,6.45-10.9,8.61-25.67,14.38-35.62,4.58-7.9,18.68-10.02,18.23.15-.23,5.27-6.58,17.45,4.34,16.51,10.7-.92,17.15-13.74,12.19-23.03-8.69-16.28-65.78-10.09-60.35,17.33,1.55,7.84,8.68,3.73,6.55,13.02-5,21.74-46.41,22.67-43.64-10.66C26.54,7.55,83.54-5.25,119,1.84c20.21,4.04,38.85,18.57,31.85,41.26-3.47,11.25-12.97,15.97-23.05,19.96,22.73,26.9.4,70.3-35.41,65.4-10.29-1.41-18.9-11.45-18.59-21.91ZM98.51,66.76c-11.43,2.63-13.14,28.1,4.75,24.73,11.76-2.21,15.17-29.32-4.75-24.73Z"/>
  </g>
</svg>